<?xml version="1.0" standalone="no"?>
<!DOCTYPE svg PUBLIC "-//W3C//DTD SVG 20010904//EN"
 "http://www.w3.org/TR/2001/REC-SVG-20010904/DTD/svg10.dtd">
<svg version="1.0" xmlns="http://www.w3.org/2000/svg"
 width="36.000000pt" height="36.000000pt" viewBox="0 0 36.000000 36.000000"
 preserveAspectRatio="xMidYMid meet">

<g transform="translate(0.000000,36.000000) scale(0.100000,-0.100000)"
fill="#000000" stroke="none">
<path d="M85 351 c-11 -5 -33 -23 -50 -41 -26 -27 -30 -39 -30 -85 0 -49 4
-58 36 -91 44 -44 100 -55 150 -30 l33 16 51 -50 c28 -28 54 -47 58 -43 4 4
-15 30 -43 58 l-50 51 16 33 c39 79 -19 179 -107 187 -24 2 -53 0 -64 -5z
m130 -51 c24 -25 30 -39 30 -75 0 -37 -6 -50 -33 -77 -46 -47 -108 -47 -154 0
-76 76 -15 201 92 187 20 -3 46 -16 65 -35z"/>
</g>
</svg>
