<?xml version="1.0" standalone="no"?>
<!DOCTYPE svg PUBLIC "-//W3C//DTD SVG 20010904//EN"
 "http://www.w3.org/TR/2001/REC-SVG-20010904/DTD/svg10.dtd">
<svg version="1.0" xmlns="http://www.w3.org/2000/svg"
 width="36.000000pt" height="36.000000pt" viewBox="0 0 36.000000 36.000000"
 preserveAspectRatio="xMidYMid meet">

<g transform="translate(0.000000,36.000000) scale(0.100000,-0.100000)"
fill="#000000" stroke="none">
<path d="M87 243 c-4 -3 -7 -32 -7 -63 0 -50 3 -58 25 -70 20 -11 29 -11 49
-1 18 10 27 10 43 0 16 -10 26 -9 52 2 25 11 31 20 31 44 0 38 -25 75 -50 75
-10 0 -22 5 -25 10 -7 11 -108 14 -118 3z m103 -38 c0 -14 5 -25 10 -25 6 0
10 7 10 15 0 36 49 -1 50 -38 0 -14 -3 -15 -19 -5 -16 10 -25 9 -45 -1 -21
-11 -28 -12 -41 -1 -8 7 -24 10 -35 7 -17 -4 -20 0 -20 34 l0 39 45 0 c41 0
45 -2 45 -25z"/>
</g>
</svg>
