<?xml version="1.0" standalone="no"?>
<!DOCTYPE svg PUBLIC "-//W3C//DTD SVG 20010904//EN"
 "http://www.w3.org/TR/2001/REC-SVG-20010904/DTD/svg10.dtd">
<svg version="1.0" xmlns="http://www.w3.org/2000/svg"
 width="106.000000pt" height="72.000000pt" viewBox="0 0 106.000000 72.000000"
 preserveAspectRatio="xMidYMid meet">

<g transform="translate(0.000000,72.000000) scale(0.100000,-0.100000)"
fill="#000000" stroke="none">
<path d="M423 711 c-187 -30 -331 -118 -384 -236 -29 -62 -26 -168 6 -232 73
-145 255 -232 487 -233 297 0 501 135 515 340 3 36 0 76 -6 90 -8 21 -9 17 -4
-20 8 -67 -11 -121 -63 -179 -54 -60 -123 -101 -224 -133 -63 -19 -97 -23
-210 -23 -113 0 -147 4 -210 23 -101 32 -170 73 -224 133 -55 61 -88 159 -53
159 20 0 89 -20 145 -42 42 -16 52 -25 52 -44 0 -15 10 -30 28 -41 15 -9 35
-25 45 -35 10 -10 26 -18 36 -18 11 0 21 -7 25 -15 3 -8 15 -15 26 -15 11 0
34 -10 50 -22 25 -18 33 -20 55 -10 15 7 34 8 47 3 24 -9 101 11 127 32 9 7
28 18 44 25 15 6 27 16 27 21 0 5 16 18 35 30 25 14 35 27 35 45 0 21 9 28 55
45 31 12 59 21 63 21 21 0 82 22 82 30 0 9 -114 -20 -179 -46 l-41 -16 -102
87 c-57 48 -114 91 -127 96 -31 12 -56 4 -110 -37 -45 -34 -84 -43 -97 -22
-12 19 87 105 137 118 38 11 53 10 114 -9 148 -46 199 -49 270 -15 l30 14 -30
-6 c-98 -18 -150 -16 -224 10 -90 31 -153 33 -206 6 -22 -11 -65 -25 -95 -32
-50 -10 -64 -9 -130 11 l-74 23 24 19 c33 24 150 66 224 79 230 40 474 -35
583 -178 41 -54 43 -46 4 12 -51 74 -157 139 -279 170 -74 20 -227 28 -299 17z
m-201 -152 c52 -16 85 -20 130 -16 l60 5 -32 -33 c-28 -29 -31 -37 -20 -50 21
-26 71 -18 124 20 77 55 75 55 239 -84 66 -55 87 -80 85 -95 -5 -34 -36 -30
-86 10 l-47 37 40 -42 c32 -34 38 -45 29 -59 -17 -26 -47 -25 -74 3 -13 14
-28 25 -34 25 -5 0 3 -13 18 -29 30 -31 30 -61 1 -61 -9 0 -33 12 -53 27 l-37
27 28 -30 c30 -33 27 -44 -10 -44 -24 0 -27 4 -37 53 -4 17 -16 31 -31 37 -14
5 -25 16 -25 25 0 15 -42 48 -56 43 -5 -1 -20 4 -32 11 -13 7 -34 10 -47 7
-13 -3 -27 -1 -30 4 -4 6 -21 9 -38 8 -18 -1 -81 13 -140 32 -103 33 -108 36
-102 59 11 44 78 128 103 131 2 0 35 -10 74 -21z m103 -229 c4 -7 13 -7 26 0
20 11 59 -2 59 -19 0 -5 9 -7 20 -4 26 7 53 -15 47 -39 -4 -14 1 -18 19 -18
31 0 53 -42 34 -65 -18 -21 -56 -19 -73 5 -8 11 -16 17 -20 14 -10 -10 -47 7
-47 22 0 8 -5 12 -10 9 -17 -10 -49 5 -55 26 -4 10 -14 19 -24 19 -24 0 -43
23 -35 44 7 18 49 22 59 6z"/>
</g>
</svg>
